# xmcd
#
# Track frame offsets: 
#        150
#        21675
#        49069
#        76770
#        100961
#        133229
#        150100
#        169971
#        191302
#        209114
#        227895
#
# Disc length: 3374 seconds
#
# Revision: 0
# Processed by: cddbd v1.5.2PL0 Copyright (c) Steve Scherf et al.
# Submitted via: ExactAudioCopy v0.95b3
#
DISCID=930d2c0b
DTITLE=Al Copley - Rainy Summer
DYEAR=2000
DGENRE=Blues
TTITLE0=Good Friend
TTITLE1=Rainy Summer Blues
TTITLE2=Boom Boom
TTITLE3=Been Keepin' It For You
TTITLE4=St. Louis Blues
TTITLE5=Since I Fell For You
TTITLE6=St. James Infirmary
TTITLE7=Memories Of You
TTITLE8=Hello Blues
TTITLE9=Misty
TTITLE10=Hanka
EXTD=
EXTT0=
EXTT1=
EXTT2=
EXTT3=
EXTT4=
EXTT5=
EXTT6=
EXTT7=
EXTT8=
EXTT9=
EXTT10=
PLAYORDER=
